<svg id="Capa_1" enable-background="new 0 0 512 512" height="100%" viewBox="0 0 512 512" width="100%" xmlns="http://www.w3.org/2000/svg"><g><g><path d="m120.349 296.765c4.143 0 7.5-3.357 7.5-7.5v-181.978h193.606c4.143 0 7.5-3.357 7.5-7.5s-3.357-7.5-7.5-7.5h-196.942c-6.432 0-11.664 5.218-11.664 11.631v185.347c0 4.142 3.358 7.5 7.5 7.5z"/><g><path d="m387.488 92.287h-30.973c-4.143 0-7.5 3.357-7.5 7.5s3.357 7.5 7.5 7.5h27.636v357.429h-212.509l-.082-29.566c-.019-7.036-5.768-12.747-12.823-12.747h-.034l-30.854.082v-98.117c0-4.143-3.357-7.5-7.5-7.5s-7.5 3.357-7.5 7.5v105.637c0 2.037.829 3.987 2.296 5.401l43.813 42.212c1.398 1.347 3.264 2.099 5.204 2.099h223.325c6.431 0 11.663-5.218 11.663-11.631v-364.168c.001-6.413-5.232-11.631-11.662-11.631zm-248.595 345.168 17.673-.047.048 17.12z"/><path d="m399.057 60.003h-74.117v-.516c0-14.339-11.73-26.004-26.148-26.004h-12.702c-.156 0-.24-.104-.24-.18v-3.628c-.001-16.362-13.391-29.675-29.85-29.675s-29.85 13.313-29.85 29.676v3.628c0 .075-.083.18-.24.18h-12.702c-14.418 0-26.148 11.665-26.148 26.004v.516h-74.117c-18.085 0-32.798 14.713-32.798 32.798v386.4c0 18.085 14.713 32.799 32.798 32.799h286.114c18.085 0 32.798-14.714 32.798-32.799v-386.4c0-18.086-14.713-32.799-32.798-32.799zm-196.997-.516c0-6.067 5.001-11.004 11.148-11.004h12.702c8.403 0 15.24-6.81 15.24-15.18v-3.628c.001-8.091 6.662-14.675 14.85-14.675s14.849 6.584 14.849 14.676v3.628c0 8.37 6.837 15.18 15.24 15.18h12.702c6.147 0 11.148 4.937 11.148 11.004v8.645h-107.879zm214.795 419.714c0 9.814-7.984 17.799-17.798 17.799h-286.114c-9.813 0-17.798-7.984-17.798-17.799v-386.4c0-9.813 7.984-17.798 17.798-17.798h75.029c1.891 4.754 6.54 8.129 11.974 8.129h112.108c5.435 0 10.083-3.375 11.975-8.129h75.028c9.813 0 17.798 7.984 17.798 17.798z"/><path d="m210.46 220.351 21.095-.045v20.918c0 8.246 6.735 14.955 15.014 14.955h18.862c8.278 0 15.014-6.709 15.014-14.955l.014-20.873h21.081c8.279 0 15.015-6.709 15.015-14.955v-18.716c0-8.246-6.735-14.955-15.015-14.955l-21.095.045v-20.918c0-8.246-6.735-14.955-15.014-14.955h-18.862c-8.278 0-15.014 6.709-15.014 14.955l-.014 20.873h-21.081c-8.278 0-15.014 6.709-15.014 14.955v18.716c.001 8.246 6.736 14.955 15.014 14.955zm0-33.626h21.081c8.278 0 15.014-6.709 15.014-14.955l.014-20.873 18.876-.045v20.918c0 8.246 6.735 14.955 15.014 14.955h21.081l.015-.045-.015 18.671h-21.081c-8.278 0-15.014 6.709-15.014 14.955l-.014 20.873-18.876.045v-20.918c0-8.246-6.735-14.955-15.014-14.955l-21.095.045z"/><g><path d="m309.051 312.46h45.318c4.143 0 7.5-3.357 7.5-7.5s-3.357-7.5-7.5-7.5h-45.318c-4.143 0-7.5 3.357-7.5 7.5s3.357 7.5 7.5 7.5z"/><path d="m157.626 312.46h113.693c4.143 0 7.5-3.357 7.5-7.5s-3.357-7.5-7.5-7.5h-113.693c-4.143 0-7.5 3.357-7.5 7.5s3.357 7.5 7.5 7.5z"/><path d="m354.369 336.756h-196.743c-4.143 0-7.5 3.357-7.5 7.5s3.357 7.5 7.5 7.5h196.743c4.143 0 7.5-3.357 7.5-7.5s-3.357-7.5-7.5-7.5z"/><path d="m317.652 376.053h-160.026c-4.143 0-7.5 3.357-7.5 7.5s3.357 7.5 7.5 7.5h160.026c4.143 0 7.5-3.357 7.5-7.5s-3.357-7.5-7.5-7.5z"/></g></g></g></g></svg>
