<?xml version="1.0" encoding="UTF-8" standalone="no"?>
<!DOCTYPE svg PUBLIC "-//W3C//DTD SVG 1.1//EN" "http://www.w3.org/Graphics/SVG/1.1/DTD/svg11.dtd">
<svg width="100%" height="100%" viewBox="0 0 2134 2134" version="1.1" xmlns="http://www.w3.org/2000/svg" xmlns:xlink="http://www.w3.org/1999/xlink" xml:space="preserve" xmlns:serif="http://www.serif.com/" style="fill-rule:evenodd;clip-rule:evenodd;stroke-linecap:round;stroke-linejoin:round;stroke-miterlimit:10;">
    <g transform="matrix(4.16667,0,0,4.16667,0,0)">
        <g>
            <path d="M352.9,47C360.6,40 368.4,32.9 376.1,25.9M242.5,147.6C270.8,121.8 299.1,96.1 327.4,70.3M165.5,292.4C158.1,285.6 150.7,278.9 143.2,272.1C137.3,266.8 135,260.4 135.5,252.6C136,245.5 140,240.7 145,236.2C167.1,216.1 189.1,196 211.2,175.9M187.2,312.1C187.1,312 186.9,311.8 186.8,311.7M376.5,486.1C319.8,434.4 264.6,382.6 207.8,330.9" style="fill:none;fill-rule:nonzero;stroke:black;stroke-width:16px;"/>
        </g>
    </g>
</svg>
