<?xml version="1.0" encoding="UTF-8" standalone="no"?>
<!DOCTYPE svg PUBLIC "-//W3C//DTD SVG 1.1//EN" "http://www.w3.org/Graphics/SVG/1.1/DTD/svg11.dtd">
<svg width="100%" height="100%" viewBox="0 0 41 46" version="1.1" xmlns="http://www.w3.org/2000/svg" xmlns:xlink="http://www.w3.org/1999/xlink" xml:space="preserve" xmlns:serif="http://www.serif.com/" style="fill-rule:evenodd;clip-rule:evenodd;">
    <g id="icon---trainingsplan---aktiv" serif:id="icon-/-trainingsplan---aktiv">
        <g id="Shape" transform="matrix(0.820391,0,0,0.820391,0.0438043,8.65517)">
            <path d="M30.883,43.835L1.953,43.835C1.745,43.835 1.575,43.666 1.575,43.457L1.575,33.6C1.575,33.252 1.293,32.97 0.945,32.97C0.597,32.97 0.315,33.252 0.315,33.6L0.315,43.457C0.315,44.361 1.05,45.095 1.953,45.095L30.882,45.095C31.231,45.095 31.513,44.813 31.513,44.465C31.513,44.117 31.231,43.835 30.883,43.835Z" style="fill-rule:nonzero;"/>
        </g>
        <g id="Shape1" serif:id="Shape" transform="matrix(0.820391,0,0,0.820391,0.0438043,8.65517)">
            <path d="M38.588,4.658L36.702,4.658C36.702,4.658 32.057,4.658 30.897,4.658C30.549,4.658 30.267,4.94 30.267,5.288C30.267,5.637 30.549,5.919 30.897,5.919L38.588,5.919C38.796,5.919 38.966,6.088 38.966,6.297L38.966,12.007L1.575,12.007L1.575,6.297C1.575,6.088 1.745,5.919 1.953,5.919C1.953,5.919 8.707,5.919 9.209,5.919C9.557,5.919 9.839,5.637 9.839,5.288C9.839,4.94 9.557,4.658 9.209,4.658C8.709,4.658 3.84,4.658 3.84,4.658C1.84,4.658 1.617,4.602 1.138,4.875C0.87,5.026 0.643,5.268 0.509,5.522C0.223,6.061 0.315,4.324 0.315,29.631C0.315,29.979 0.597,30.261 0.945,30.261C1.293,30.261 1.575,29.979 1.575,29.631L1.575,13.267L38.966,13.267L38.966,43.457C38.966,43.666 38.796,43.835 38.588,43.835L34.132,43.835C33.784,43.835 33.502,44.117 33.502,44.465C33.502,44.814 33.784,45.096 34.132,45.096L38.588,45.096C39.491,45.096 40.226,44.361 40.226,43.457C40.226,42.583 40.226,7.082 40.226,6.297C40.226,5.393 39.491,4.658 38.588,4.658Z" style="fill-rule:nonzero;"/>
        </g>
        <g transform="matrix(0.820391,0,0,0.820391,0.0438043,8.65517)">
            <path d="M20.365,0.401C22.426,0.472 24.097,2.231 24.097,4.442L27.539,4.442C27.874,4.458 28.123,4.714 28.139,5.042L28.139,8.275C28.123,8.604 27.879,8.859 27.539,8.875L12.988,8.875C12.659,8.859 12.405,8.615 12.388,8.275L12.388,5.042C12.405,4.706 12.661,4.458 12.988,4.442L16.43,4.442C16.43,4.173 16.427,4.169 16.44,3.932C16.6,1.949 18.167,0.376 20.365,0.401ZM20.19,1.601C18.833,1.647 17.678,2.778 17.631,4.16C17.623,4.825 17.726,5.608 17.03,5.642L13.588,5.642L13.588,7.675L26.939,7.675L26.939,5.642L23.497,5.642C22.429,5.589 23.286,3.583 22.242,2.427C21.735,1.866 20.972,1.592 20.19,1.601Z" style="fill-rule:nonzero;"/>
        </g>
        <g id="Fill-6" transform="matrix(0.820391,0,0,0.820391,0.0438043,8.65517)">
            <path d="M20.263,5.042C19.817,5.042 19.455,4.68 19.455,4.233C19.455,3.786 19.817,3.425 20.263,3.425C20.71,3.425 21.072,3.786 21.072,4.233C21.072,4.68 20.71,5.042 20.263,5.042"/>
        </g>
        <g id="Fill-10" transform="matrix(0.820391,0,0,0.820391,0.0438043,8.65517)">
            <path d="M9.729,31.15C9.349,29.253 9.285,25.514 9.775,23.716C9.874,23.354 10.074,22.925 10.47,22.925L10.494,22.925C10.245,24.121 9.699,27.532 10.392,31.925C9.919,31.906 9.765,31.329 9.729,31.15M14.108,31.275L14.12,29.528L14.798,29.533L21.826,29.582C22.083,29.582 22.29,29.377 22.292,29.122C22.293,28.867 22.088,28.659 21.833,28.657L13.664,28.601C13.542,28.601 13.424,28.648 13.336,28.734C13.249,28.82 13.2,28.937 13.199,29.06L13.183,31.268C13.182,31.448 13.11,31.617 12.981,31.745C12.851,31.872 12.675,31.938 12.501,31.941L11.33,31.933C10.585,27.39 11.241,23.839 11.44,22.931L12.564,22.939C12.937,22.942 13.239,23.248 13.236,23.621L13.183,26.795C13.181,27.051 13.386,27.259 13.642,27.261C13.899,27.261 14.105,27.056 14.107,26.802L14.111,26.298L26.932,26.387C27.052,26.388 27.172,26.34 27.259,26.254C27.347,26.168 27.396,26.05 27.397,25.928L27.412,23.719C27.413,23.54 27.485,23.37 27.615,23.243C27.744,23.115 27.917,23.042 28.095,23.046L28.321,23.048L30.185,23.061C30.583,23.064 30.778,23.498 30.872,23.862C31.377,25.823 31.176,29.576 30.815,31.298C30.777,31.478 30.616,32.063 30.126,32.063L28.259,32.05L28.032,32.048C27.852,32.047 27.683,31.975 27.556,31.846C27.428,31.716 27.358,31.546 27.359,31.366L27.375,29.158L24.934,29.14L27.375,29.158C27.376,29.035 27.328,28.917 27.241,28.83C27.155,28.743 27.038,28.693 26.916,28.692L23.798,28.671C23.541,28.671 23.335,28.875 23.332,29.13C23.331,29.385 23.536,29.593 23.792,29.595L26.447,29.613L26.435,31.36C26.432,31.786 26.596,32.189 26.897,32.495C27.199,32.8 27.599,32.97 28.026,32.973L30.115,32.988C30.537,32.988 30.904,32.822 31.188,32.533C31.442,32.275 31.629,31.918 31.72,31.488C32.108,29.636 32.314,25.751 31.767,23.631C31.657,23.202 31.478,22.857 31.244,22.606C30.964,22.304 30.605,22.139 30.191,22.137L28.101,22.122C27.672,22.12 27.271,22.283 26.966,22.584C26.66,22.885 26.49,23.286 26.487,23.713L26.476,25.459L14.826,25.379L14.149,25.374L14.161,23.628C14.164,23.182 13.983,22.777 13.691,22.485C13.404,22.197 13.008,22.017 12.57,22.014L10.48,22C9.716,22 9.138,22.536 8.883,23.473C8.308,25.583 8.463,29.537 8.823,31.332C9.007,32.25 9.628,32.846 10.405,32.851L12.495,32.866C12.92,32.862 13.317,32.707 13.621,32.411C13.935,32.102 14.105,31.701 14.108,31.275Z" style="stroke:rgb(83,83,83);stroke-width:0.2px;"/>
        </g>
        <g transform="matrix(0.0483169,0,0,0.0483169,23.517,-7.07976)">
            <path d="M352.391,248.485L263.515,248.485L263.515,159.609C263.515,155.459 260.151,152.094 256,152.094C251.85,152.094 248.485,155.458 248.485,159.609L248.485,248.485L159.61,248.485C155.46,248.485 152.095,251.849 152.095,256C152.095,260.15 155.459,263.515 159.61,263.515L248.486,263.515L248.486,352.39C248.485,356.541 251.85,359.905 256,359.905C260.15,359.905 263.515,356.541 263.515,352.39L263.515,263.515L352.391,263.515C356.541,263.515 359.906,260.15 359.906,256C359.906,251.85 356.542,248.485 352.391,248.485Z" style="fill-rule:nonzero;"/>
        </g>
    </g>
</svg>
