<?xml version="1.0" encoding="UTF-8" standalone="no"?>
<!DOCTYPE svg PUBLIC "-//W3C//DTD SVG 1.1//EN" "http://www.w3.org/Graphics/SVG/1.1/DTD/svg11.dtd">
<svg width="100%" height="100%" viewBox="0 0 48 48" version="1.1" xmlns="http://www.w3.org/2000/svg" xmlns:xlink="http://www.w3.org/1999/xlink" xml:space="preserve" xmlns:serif="http://www.serif.com/" style="fill-rule:evenodd;clip-rule:evenodd;stroke-linecap:round;stroke-linejoin:round;stroke-miterlimit:10;">
    <g id="Icons">
        <g transform="matrix(2.25711,0,0,2.25711,-30.0815,-30.116)">
            <path d="M23.987,15.387C27.888,15.461 31.088,20.057 29.31,23.861C27.737,27.229 22.671,28.33 19.852,25.705C17.992,23.974 17.432,20.99 18.572,18.697C19.564,16.701 21.712,15.373 23.987,15.387ZM23.842,16.087C20.386,16.153 17.576,20.21 19.143,23.565C20.769,27.046 26.729,27.485 28.621,23.68C30.162,20.581 27.709,16.25 24.113,16.09C24.023,16.088 23.932,16.086 23.842,16.087Z" style="fill:rgb(48,48,48);fill-rule:nonzero;"/>
        </g>
        <g transform="matrix(2.25711,0,0,2.25711,-30.0815,-30.116)">
            <path d="M25.491,17.373C26.074,17.4 26.754,17.935 26.567,18.32C26.218,19.04 24.475,17.356 25.491,17.373Z" style="fill:rgb(48,48,48);fill-rule:nonzero;"/>
        </g>
        <g transform="matrix(2.25711,0,0,2.25711,-30.0815,-30.116)">
            <path d="M23.929,17.048C24.333,17.084 24.376,17.728 23.724,17.753C21.881,17.869 20.4,19.454 20.312,21.372C20.259,21.841 19.506,21.914 19.648,20.798C19.906,18.76 21.77,17.003 23.929,17.048Z" style="fill:rgb(48,48,48);fill-rule:nonzero;"/>
        </g>
        <g transform="matrix(2.25711,0,0,2.25711,-30.0815,-30.116)">
            <path d="M30.039,28.633C32.318,28.686 34.089,30.925 34.117,33.117C34.117,33.117 33.485,34.104 33.406,32.856C33.247,31.039 31.837,29.375 30.028,29.333C25.934,29.301 21.84,29.281 17.747,29.334C15.863,29.407 14.427,31.208 14.403,33.126C14.403,33.126 13.675,33.798 13.708,32.907C13.842,30.727 15.501,28.72 17.729,28.634C21.832,28.581 25.936,28.601 30.039,28.633Z" style="fill:rgb(48,48,48);fill-rule:nonzero;"/>
        </g>
        <g transform="matrix(2.25711,0,0,2.25711,-30.0815,-30.116)">
            <path d="M33.767,33.122L14.053,33.122" style="fill:none;stroke:rgb(48,48,48);stroke-width:0.7px;"/>
        </g>
        <g transform="matrix(2.25711,0,0,2.25711,-30.0815,-30.116)">
            <path d="M32.312,14.529C32.483,14.545 32.624,14.679 32.64,14.857C32.674,15.975 32.674,17.094 32.64,18.212C32.608,18.571 31.977,18.606 31.942,18.212C31.908,17.094 31.908,15.975 31.942,14.857C31.959,14.662 32.077,14.522 32.312,14.529Z" style="fill:rgb(48,48,48);fill-rule:nonzero;"/>
        </g>
        <g transform="matrix(2.25711,0,0,2.25711,-30.0815,-30.116)">
            <path d="M33.968,16.185C34.321,16.217 34.399,16.845 33.968,16.884C32.851,16.918 31.731,16.918 30.614,16.884C30.254,16.851 30.22,16.221 30.614,16.185C31.731,16.152 32.851,16.152 33.968,16.185Z" style="fill:rgb(48,48,48);fill-rule:nonzero;"/>
        </g>
    </g>
</svg>
