<?xml version="1.0"?>
<svg xmlns="http://www.w3.org/2000/svg" viewBox="0 0 512 512" width="100%" height="100%"><g id="Document-2" data-name="Document"><path d="M429.657,82.343l-72-72A8,8,0,0,0,352,8H88a8,8,0,0,0-8,8V496a8,8,0,0,0,8,8H424a8,8,0,0,0,8-8V88A8,8,0,0,0,429.657,82.343ZM360,35.313,404.687,80H360ZM96,488V24H344V88a8,8,0,0,0,8,8h64V488Z"/><path d="M368,312H144a8,8,0,0,0-8,8v32a8,8,0,0,0,8,8H368a8,8,0,0,0,8-8V320A8,8,0,0,0,368,312Zm-8,32H152V328H360Z"/><path d="M368,368H144a8,8,0,0,0,0,16H368a8,8,0,0,0,0-16Z"/><path d="M368,392H144a8,8,0,0,0,0,16H368a8,8,0,0,0,0-16Z"/><path d="M304,416H144a8,8,0,0,0,0,16H304a8,8,0,0,0,0-16Z"/><path d="M336,416h-8a8,8,0,0,0,0,16h8a8,8,0,0,0,0-16Z"/><path d="M188,242.354l64,36.951a8.005,8.005,0,0,0,8,0l64-36.951a40.113,40.113,0,0,0,20-34.641v-87.9a8,8,0,0,0-5.772-7.684l-80-23.188a8.018,8.018,0,0,0-4.456,0l-80,23.188A8,8,0,0,0,168,119.812v87.9A40.113,40.113,0,0,0,188,242.354Zm-4-116.532,72-20.869,72,20.869v81.891A24.07,24.07,0,0,1,316,228.5l-60,34.641L196,228.5a24.07,24.07,0,0,1-12-20.785Z"/><path d="M256,145a8,8,0,0,0,8-8v-8a8,8,0,0,0-16,0v8A8,8,0,0,0,256,145Z"/><path d="M256,241a8,8,0,0,0,8-8V161a8,8,0,0,0-16,0v72A8,8,0,0,0,256,241Z"/></g></svg>
