<?xml version="1.0" encoding="UTF-8" standalone="no"?>
<!DOCTYPE svg PUBLIC "-//W3C//DTD SVG 1.1//EN" "http://www.w3.org/Graphics/SVG/1.1/DTD/svg11.dtd">
<svg width="100%" height="100%" viewBox="0 0 24 24" version="1.1" xmlns="http://www.w3.org/2000/svg" xmlns:xlink="http://www.w3.org/1999/xlink" xml:space="preserve" xmlns:serif="http://www.serif.com/" style="fill-rule:evenodd;clip-rule:evenodd;stroke-linejoin:round;stroke-miterlimit:2;">
    <g transform="matrix(0.862935,0,0,0.862935,-4.26108,-0.249905)">
        <path d="M12,19C10.9,19 10,19.9 10,21C10,22.1 10.9,23 12,23C13.1,23 14,22.1 14,21C14,19.9 13.1,19 12,19Z"/>
    </g>
    <g transform="matrix(0.862935,0,0,0.862935,-8.13611,-0.249905)">
        <path d="M12,19C10.9,19 10,19.9 10,21C10,22.1 10.9,23 12,23C13.1,23 14,22.1 14,21C14,19.9 13.1,19 12,19Z"/>
    </g>
    <g transform="matrix(0.862935,0,0,0.862935,-0.3782,-0.249905)">
        <path d="M12,19C10.9,19 10,19.9 10,21C10,22.1 10.9,23 12,23C13.1,23 14,22.1 14,21C14,19.9 13.1,19 12,19Z"/>
    </g>
    <g transform="matrix(0.862935,0,0,0.862935,-2.97268,1.07661)">
        <path d="M6,13C4.9,13 4,13.9 4,15C4,16.1 4.9,17 6,17C7.1,17 8,16.1 8,15C8,13.9 7.1,13 6,13Z"/>
    </g>
    <g transform="matrix(0.862935,0,0,0.862935,-4.26108,1.07661)">
        <path d="M12,13C10.9,13 10,13.9 10,15C10,16.1 10.9,17 12,17C13.1,17 14,16.1 14,15C14,13.9 13.1,13 12,13Z"/>
    </g>
    <g transform="matrix(0.862935,0,0,0.862935,-5.55423,1.07661)">
        <path d="M18,13C16.9,13 16,13.9 16,15C16,16.1 16.9,17 18,17C19.1,17 20,16.1 20,15C20,13.9 19.1,13 18,13Z"/>
    </g>
    <g transform="matrix(0.862935,0,0,0.862935,-2.97268,2.34167)">
        <path d="M6,7C4.9,7 4,7.9 4,9C4,10.1 4.9,11 6,11C7.1,11 8,10.1 8,9C8,7.9 7.1,7 6,7Z"/>
    </g>
    <g transform="matrix(0.862935,0,0,0.862935,-5.55423,2.34167)">
        <path d="M18,7C16.9,7 16,7.9 16,9C16,10.1 16.9,11 18,11C19.1,11 20,10.1 20,9C20,7.9 19.1,7 18,7Z"/>
    </g>
    <g transform="matrix(0.862935,0,0,0.862935,-4.26108,2.34167)">
        <path d="M12,7C10.9,7 10,7.9 10,9C10,10.1 10.9,11 12,11C13.1,11 14,10.1 14,9C14,7.9 13.1,7 12,7Z"/>
    </g>
    <g transform="matrix(0.862935,0,0,0.862935,-2.97268,3.69884)">
        <path d="M6,1C4.9,1 4,1.9 4,3C4,4.1 4.9,5 6,5C7.1,5 8,4.1 8,3C8,1.9 7.1,1 6,1Z"/>
    </g>
    <g transform="matrix(0.862935,0,0,0.862935,-5.55423,3.69884)">
        <path d="M18,5C19.1,5 20,4.1 20,3C20,1.9 19.1,1 18,1C16.9,1 16,1.9 16,3C16,4.1 16.9,5 18,5Z"/>
    </g>
    <g transform="matrix(0.862935,0,0,0.862935,3.50659,-0.249905)">
        <path d="M12,19C10.9,19 10,19.9 10,21C10,22.1 10.9,23 12,23C13.1,23 14,22.1 14,21C14,19.9 13.1,19 12,19Z"/>
    </g>
    <g transform="matrix(0.862935,0,0,0.862935,-1.66944,1.07661)">
        <path d="M18,13C16.9,13 16,13.9 16,15C16,16.1 16.9,17 18,17C19.1,17 20,16.1 20,15C20,13.9 19.1,13 18,13Z"/>
    </g>
    <g transform="matrix(0.862935,0,0,0.862935,-1.66944,2.34167)">
        <path d="M18,7C16.9,7 16,7.9 16,9C16,10.1 16.9,11 18,11C19.1,11 20,10.1 20,9C20,7.9 19.1,7 18,7Z"/>
    </g>
    <g transform="matrix(0.862935,0,0,0.862935,-1.66944,3.69884)">
        <path d="M18,5C19.1,5 20,4.1 20,3C20,1.9 19.1,1 18,1C16.9,1 16,1.9 16,3C16,4.1 16.9,5 18,5Z"/>
    </g>
    <g transform="matrix(0.862935,0,0,0.862935,-4.26108,3.69884)">
        <path d="M12,1C10.9,1 10,1.9 10,3C10,4.1 10.9,5 12,5C13.1,5 14,4.1 14,3C14,1.9 13.1,1 12,1Z"/>
    </g>
    <g transform="matrix(0.862935,0,0,0.862935,7.41195,-0.249905)">
        <path d="M12,19C10.9,19 10,19.9 10,21C10,22.1 10.9,23 12,23C13.1,23 14,22.1 14,21C14,19.9 13.1,19 12,19Z"/>
    </g>
    <g transform="matrix(0.862935,0,0,0.862935,-4.26108,3.6664)">
        <path d="M12,19C10.9,19 10,19.9 10,21C10,22.1 10.9,23 12,23C13.1,23 14,22.1 14,21C14,19.9 13.1,19 12,19Z"/>
    </g>
    <g transform="matrix(0.862935,0,0,0.862935,-8.13611,3.6664)">
        <path d="M12,19C10.9,19 10,19.9 10,21C10,22.1 10.9,23 12,23C13.1,23 14,22.1 14,21C14,19.9 13.1,19 12,19Z"/>
    </g>
    <g transform="matrix(0.862935,0,0,0.862935,-0.3782,3.6664)">
        <path d="M12,19C10.9,19 10,19.9 10,21C10,22.1 10.9,23 12,23C13.1,23 14,22.1 14,21C14,19.9 13.1,19 12,19Z"/>
    </g>
    <g transform="matrix(0.862935,0,0,0.862935,3.50659,3.6664)">
        <path d="M12,19C10.9,19 10,19.9 10,21C10,22.1 10.9,23 12,23C13.1,23 14,22.1 14,21C14,19.9 13.1,19 12,19Z"/>
    </g>
    <g transform="matrix(0.862935,0,0,0.862935,7.41195,3.6664)">
        <path d="M12,19C10.9,19 10,19.9 10,21C10,22.1 10.9,23 12,23C13.1,23 14,22.1 14,21C14,19.9 13.1,19 12,19Z"/>
    </g>
    <g transform="matrix(0.862935,0,0,0.862935,2.23592,1.07661)">
        <path d="M18,13C16.9,13 16,13.9 16,15C16,16.1 16.9,17 18,17C19.1,17 20,16.1 20,15C20,13.9 19.1,13 18,13Z"/>
    </g>
    <g transform="matrix(0.862935,0,0,0.862935,2.23592,2.34167)">
        <path d="M18,7C16.9,7 16,7.9 16,9C16,10.1 16.9,11 18,11C19.1,11 20,10.1 20,9C20,7.9 19.1,7 18,7Z"/>
    </g>
    <g transform="matrix(0.862935,0,0,0.862935,2.23592,3.69884)">
        <path d="M18,5C19.1,5 20,4.1 20,3C20,1.9 19.1,1 18,1C16.9,1 16,1.9 16,3C16,4.1 16.9,5 18,5Z"/>
    </g>
    <g transform="matrix(0.862935,0,0,0.862935,-2.97268,-0.342495)">
        <path d="M6,1C4.9,1 4,1.9 4,3C4,4.1 4.9,5 6,5C7.1,5 8,4.1 8,3C8,1.9 7.1,1 6,1Z"/>
    </g>
    <g transform="matrix(0.862935,0,0,0.862935,-5.55423,-0.342495)">
        <path d="M18,5C19.1,5 20,4.1 20,3C20,1.9 19.1,1 18,1C16.9,1 16,1.9 16,3C16,4.1 16.9,5 18,5Z"/>
    </g>
    <g transform="matrix(0.862935,0,0,0.862935,-1.66944,-0.342495)">
        <path d="M18,5C19.1,5 20,4.1 20,3C20,1.9 19.1,1 18,1C16.9,1 16,1.9 16,3C16,4.1 16.9,5 18,5Z"/>
    </g>
    <g transform="matrix(0.862935,0,0,0.862935,-4.26108,-0.342495)">
        <path d="M12,1C10.9,1 10,1.9 10,3C10,4.1 10.9,5 12,5C13.1,5 14,4.1 14,3C14,1.9 13.1,1 12,1Z"/>
    </g>
    <g transform="matrix(0.862935,0,0,0.862935,2.23592,-0.342495)">
        <path d="M18,5C19.1,5 20,4.1 20,3C20,1.9 19.1,1 18,1C16.9,1 16,1.9 16,3C16,4.1 16.9,5 18,5Z"/>
    </g>
    <g transform="matrix(0.862935,0,0,0.862935,11.3917,-0.249905)">
        <path d="M12,19C10.9,19 10,19.9 10,21C10,22.1 10.9,23 12,23C13.1,23 14,22.1 14,21C14,19.9 13.1,19 12,19Z"/>
    </g>
    <g transform="matrix(0.862935,0,0,0.862935,11.3917,3.6664)">
        <path d="M12,19C10.9,19 10,19.9 10,21C10,22.1 10.9,23 12,23C13.1,23 14,22.1 14,21C14,19.9 13.1,19 12,19Z"/>
    </g>
    <g transform="matrix(0.862935,0,0,0.862935,6.21568,1.07661)">
        <path d="M18,13C16.9,13 16,13.9 16,15C16,16.1 16.9,17 18,17C19.1,17 20,16.1 20,15C20,13.9 19.1,13 18,13Z"/>
    </g>
    <g transform="matrix(0.862935,0,0,0.862935,6.21568,2.34167)">
        <path d="M18,7C16.9,7 16,7.9 16,9C16,10.1 16.9,11 18,11C19.1,11 20,10.1 20,9C20,7.9 19.1,7 18,7Z"/>
    </g>
    <g transform="matrix(0.862935,0,0,0.862935,6.21568,3.69884)">
        <path d="M18,5C19.1,5 20,4.1 20,3C20,1.9 19.1,1 18,1C16.9,1 16,1.9 16,3C16,4.1 16.9,5 18,5Z"/>
    </g>
    <g transform="matrix(0.862935,0,0,0.862935,6.21568,-0.342495)">
        <path d="M18,5C19.1,5 20,4.1 20,3C20,1.9 19.1,1 18,1C16.9,1 16,1.9 16,3C16,4.1 16.9,5 18,5Z"/>
    </g>
</svg>
