<?xml version="1.0" encoding="UTF-8" standalone="no"?>
<!DOCTYPE svg PUBLIC "-//W3C//DTD SVG 1.1//EN" "http://www.w3.org/Graphics/SVG/1.1/DTD/svg11.dtd">
<svg width="100%" height="100%" viewBox="0 0 24 24" version="1.1" xmlns="http://www.w3.org/2000/svg" xmlns:xlink="http://www.w3.org/1999/xlink" xml:space="preserve" xmlns:serif="http://www.serif.com/" style="fill-rule:evenodd;clip-rule:evenodd;stroke-linejoin:round;stroke-miterlimit:2;">
    <g transform="matrix(0.862935,0,0,0.862935,-4.26108,3.6664)">
        <path d="M12,19C10.9,19 10,19.9 10,21C10,22.1 10.9,23 12,23C13.1,23 14,22.1 14,21C14,19.9 13.1,19 12,19Z"/>
    </g>
    <g transform="matrix(0.862935,0,0,0.862935,-8.13611,3.6664)">
        <path d="M12,19C10.9,19 10,19.9 10,21C10,22.1 10.9,23 12,23C13.1,23 14,22.1 14,21C14,19.9 13.1,19 12,19Z"/>
    </g>
    <g transform="matrix(0.862935,0,0,0.862935,-0.3782,3.6664)">
        <path d="M12,19C10.9,19 10,19.9 10,21C10,22.1 10.9,23 12,23C13.1,23 14,22.1 14,21C14,19.9 13.1,19 12,19Z"/>
    </g>
    <g transform="matrix(0.862935,0,0,0.862935,3.50659,3.6664)">
        <path d="M12,19C10.9,19 10,19.9 10,21C10,22.1 10.9,23 12,23C13.1,23 14,22.1 14,21C14,19.9 13.1,19 12,19Z"/>
    </g>
    <g transform="matrix(0.862935,0,0,0.862935,7.41195,3.6664)">
        <path d="M12,19C10.9,19 10,19.9 10,21C10,22.1 10.9,23 12,23C13.1,23 14,22.1 14,21C14,19.9 13.1,19 12,19Z"/>
    </g>
    <g transform="matrix(0.862935,0,0,0.862935,11.3917,3.6664)">
        <path d="M12,19C10.9,19 10,19.9 10,21C10,22.1 10.9,23 12,23C13.1,23 14,22.1 14,21C14,19.9 13.1,19 12,19Z"/>
    </g>
</svg>
