<?xml version="1.0" encoding="UTF-8" standalone="no"?>
<!DOCTYPE svg PUBLIC "-//W3C//DTD SVG 1.1//EN" "http://www.w3.org/Graphics/SVG/1.1/DTD/svg11.dtd">
<svg width="100%" height="100%" viewBox="0 0 24 24" version="1.1" xmlns="http://www.w3.org/2000/svg" xmlns:xlink="http://www.w3.org/1999/xlink" xml:space="preserve" xmlns:serif="http://www.serif.com/" style="fill-rule:evenodd;clip-rule:evenodd;stroke-linejoin:round;stroke-miterlimit:2;">
    <g transform="matrix(0.862935,0,0,0.862935,-4.26108,-0.249905)">
        <path d="M12,19C10.9,19 10,19.9 10,21C10,22.1 10.9,23 12,23C13.1,23 14,22.1 14,21C14,19.9 13.1,19 12,19Z"/>
    </g>
    <g transform="matrix(0.862935,0,0,0.862935,-8.13611,-0.249905)">
        <path d="M12,19C10.9,19 10,19.9 10,21C10,22.1 10.9,23 12,23C13.1,23 14,22.1 14,21C14,19.9 13.1,19 12,19Z"/>
    </g>
    <g transform="matrix(0.862935,0,0,0.862935,-0.3782,-0.249905)">
        <path d="M12,19C10.9,19 10,19.9 10,21C10,22.1 10.9,23 12,23C13.1,23 14,22.1 14,21C14,19.9 13.1,19 12,19Z"/>
    </g>
    <g transform="matrix(0.862935,0,0,0.862935,-2.97268,1.07661)">
        <path d="M6,13C4.9,13 4,13.9 4,15C4,16.1 4.9,17 6,17C7.1,17 8,16.1 8,15C8,13.9 7.1,13 6,13Z"/>
    </g>
    <g transform="matrix(0.862935,0,0,0.862935,-4.26108,1.07661)">
        <path d="M12,13C10.9,13 10,13.9 10,15C10,16.1 10.9,17 12,17C13.1,17 14,16.1 14,15C14,13.9 13.1,13 12,13Z"/>
    </g>
    <g transform="matrix(0.862935,0,0,0.862935,-5.55423,1.07661)">
        <path d="M18,13C16.9,13 16,13.9 16,15C16,16.1 16.9,17 18,17C19.1,17 20,16.1 20,15C20,13.9 19.1,13 18,13Z"/>
    </g>
    <g transform="matrix(0.862935,0,0,0.862935,3.50659,-0.249905)">
        <path d="M12,19C10.9,19 10,19.9 10,21C10,22.1 10.9,23 12,23C13.1,23 14,22.1 14,21C14,19.9 13.1,19 12,19Z"/>
    </g>
    <g transform="matrix(0.862935,0,0,0.862935,-1.66944,1.07661)">
        <path d="M18,13C16.9,13 16,13.9 16,15C16,16.1 16.9,17 18,17C19.1,17 20,16.1 20,15C20,13.9 19.1,13 18,13Z"/>
    </g>
    <g transform="matrix(0.862935,0,0,0.862935,7.41195,-0.249905)">
        <path d="M12,19C10.9,19 10,19.9 10,21C10,22.1 10.9,23 12,23C13.1,23 14,22.1 14,21C14,19.9 13.1,19 12,19Z"/>
    </g>
    <g transform="matrix(0.862935,0,0,0.862935,-4.26108,3.6664)">
        <path d="M12,19C10.9,19 10,19.9 10,21C10,22.1 10.9,23 12,23C13.1,23 14,22.1 14,21C14,19.9 13.1,19 12,19Z"/>
    </g>
    <g transform="matrix(0.862935,0,0,0.862935,-8.13611,3.6664)">
        <path d="M12,19C10.9,19 10,19.9 10,21C10,22.1 10.9,23 12,23C13.1,23 14,22.1 14,21C14,19.9 13.1,19 12,19Z"/>
    </g>
    <g transform="matrix(0.862935,0,0,0.862935,-0.3782,3.6664)">
        <path d="M12,19C10.9,19 10,19.9 10,21C10,22.1 10.9,23 12,23C13.1,23 14,22.1 14,21C14,19.9 13.1,19 12,19Z"/>
    </g>
    <g transform="matrix(0.862935,0,0,0.862935,3.50659,3.6664)">
        <path d="M12,19C10.9,19 10,19.9 10,21C10,22.1 10.9,23 12,23C13.1,23 14,22.1 14,21C14,19.9 13.1,19 12,19Z"/>
    </g>
    <g transform="matrix(0.862935,0,0,0.862935,7.41195,3.6664)">
        <path d="M12,19C10.9,19 10,19.9 10,21C10,22.1 10.9,23 12,23C13.1,23 14,22.1 14,21C14,19.9 13.1,19 12,19Z"/>
    </g>
    <g transform="matrix(0.862935,0,0,0.862935,2.23592,1.07661)">
        <path d="M18,13C16.9,13 16,13.9 16,15C16,16.1 16.9,17 18,17C19.1,17 20,16.1 20,15C20,13.9 19.1,13 18,13Z"/>
    </g>
    <g transform="matrix(0.862935,0,0,0.862935,11.3917,-0.249905)">
        <path d="M12,19C10.9,19 10,19.9 10,21C10,22.1 10.9,23 12,23C13.1,23 14,22.1 14,21C14,19.9 13.1,19 12,19Z"/>
    </g>
    <g transform="matrix(0.862935,0,0,0.862935,11.3917,3.6664)">
        <path d="M12,19C10.9,19 10,19.9 10,21C10,22.1 10.9,23 12,23C13.1,23 14,22.1 14,21C14,19.9 13.1,19 12,19Z"/>
    </g>
    <g transform="matrix(0.862935,0,0,0.862935,6.21568,1.07661)">
        <path d="M18,13C16.9,13 16,13.9 16,15C16,16.1 16.9,17 18,17C19.1,17 20,16.1 20,15C20,13.9 19.1,13 18,13Z"/>
    </g>
</svg>
