<?xml version="1.0"?>
<svg xmlns="http://www.w3.org/2000/svg" viewBox="0 0 512 512" width="100%" height="100%"><g id="Edit-2" data-name="Edit"><path d="M504.735,58.579A39.746,39.746,0,0,0,493.02,30.294L481.706,18.981a40.044,40.044,0,0,0-56.569,0L320,124.117V88a40.045,40.045,0,0,0-40-40H48A40.045,40.045,0,0,0,8,88V464a40.045,40.045,0,0,0,40,40H280a40.045,40.045,0,0,0,40-40V259.882L493.02,86.863A39.742,39.742,0,0,0,504.735,58.579Zm-45.657,39.6L413.824,52.922h0l5.656-5.657L464.734,92.52h0ZM232.8,324.456l-21.021,4.851-29.085-29.085,4.851-21.021,4.034-4.034,45.255,45.254Zm-54.349-5.849,14.943,14.942-19.425,4.483Zm69.7-9.5-45.254-45.254h0L402.51,64.236l45.254,45.254h0ZM304,464a24.028,24.028,0,0,1-24,24H48a24.028,24.028,0,0,1-24-24V88A24.028,24.028,0,0,1,48,64H280a24.028,24.028,0,0,1,24,24v52.117L174.607,269.51a8.005,8.005,0,0,0-2.137,3.858L155.5,346.907a8,8,0,0,0,9.594,9.593l73.539-16.97a8,8,0,0,0,3.858-2.138L304,275.882ZM481.705,75.549l-5.656,5.657L430.794,35.951l5.657-5.657a24.028,24.028,0,0,1,33.941,0l11.313,11.314a24,24,0,0,1,0,33.941Z"/><path d="M402.51,98.177,274.343,226.343a8,8,0,0,0,11.314,11.314L413.824,109.49A8,8,0,1,0,402.51,98.177Z"/><path d="M253.805,246.882l-5.658,5.657a8,8,0,1,0,11.313,11.314l5.657-5.657a8,8,0,1,0-11.312-11.314Z"/><path d="M96,456H48a8,8,0,0,0,0,16H96a8,8,0,0,0,0-16Z"/><path d="M128,456h-8a8,8,0,0,0,0,16h8a8,8,0,0,0,0-16Z"/></g></svg>
