<?xml version="1.0" encoding="iso-8859-1"?>
<!-- Generator: Adobe Illustrator 19.0.0, SVG Export Plug-In . SVG Version: 6.00 Build 0)  -->
<svg version="1.1" id="Capa_1" xmlns="http://www.w3.org/2000/svg" xmlns:xlink="http://www.w3.org/1999/xlink" x="0px" y="0px"
	 viewBox="0 0 485.544 485.544" style="enable-background:new 0 0 485.544 485.544;" xml:space="preserve">
<g>
	<g>
		<path d="M442.676,79.504c-0.048-0.712-0.184-1.4-0.416-2.072c-0.088-0.256-0.152-0.504-0.264-0.744
			c-0.392-0.848-0.88-1.656-1.568-2.344l-72-72c-0.688-0.688-1.496-1.176-2.352-1.568c-0.24-0.112-0.48-0.176-0.728-0.264
			c-0.688-0.24-1.384-0.376-2.104-0.416C363.084,0.088,362.94,0,362.772,0h-176c-4.424,0-8,3.576-8,8v272c0,4.424,3.576,8,8,8h248
			c4.424,0,8-3.576,8-8V80C442.772,79.832,442.684,79.68,442.676,79.504z M370.772,27.312L415.46,72h-44.688V27.312z M426.772,272
			h-232V16h160v64c0,4.424,3.576,8,8,8h64V272z"/>
	</g>
</g>
<g>
	<g>
		<path d="M338.772,192c-10.92,0-20.56,5.512-26.336,13.888l-39.472-19.736c1.088-3.208,1.808-6.584,1.808-10.152
			s-0.72-6.944-1.808-10.152l39.472-19.736c5.776,8.376,15.416,13.888,26.336,13.888c17.648,0,32-14.352,32-32s-14.352-32-32-32
			s-32,14.352-32,32c0,0.992,0.208,1.936,0.296,2.904l-42.912,21.456c-5.68-5.136-13.136-8.36-21.384-8.36
			c-17.648,0-32,14.352-32,32s14.352,32,32,32c8.248,0,15.704-3.224,21.384-8.36l42.912,21.456
			c-0.088,0.968-0.296,1.912-0.296,2.904c0,17.648,14.352,32,32,32s32-14.352,32-32S356.42,192,338.772,192z M338.772,112
			c8.824,0,16,7.176,16,16c0,8.824-7.176,16-16,16c-8.824,0-16-7.176-16-16C322.772,119.176,329.948,112,338.772,112z M242.772,192
			c-8.824,0-16-7.176-16-16c0-8.824,7.176-16,16-16c8.824,0,16,7.176,16,16C258.772,184.824,251.596,192,242.772,192z M338.772,240
			c-8.824,0-16-7.176-16-16c0-8.824,7.176-16,16-16c8.824,0,16,7.176,16,16C354.772,232.824,347.596,240,338.772,240z"/>
	</g>
</g>
<g>
	<g>
		<path d="M473.452,337.568c-5.912-4.984-13.704-7.072-21.304-5.752l-158.656,27.592l-45.064-45.064
			c-1.496-1.504-3.528-2.344-5.656-2.344h-80c0-4.424-3.576-8-8-8h-144c-4.424,0-8,3.576-8,8v128c0,4.424,3.576,8,8,8h144
			c4.424,0,8-3.576,8-8h22.112l85.528,42.768c3.696,1.848,7.704,2.776,11.696,2.776c4.552,0,9.096-1.192,13.168-3.568
			L469.804,380.16c8-4.664,12.968-13.312,12.968-22.576C482.772,349.848,479.372,342.552,473.452,337.568z M114.772,432h-96V320h96
			V432z M146.772,432h-16V320h16V432z M461.74,366.336L287.22,468.152c-2.96,1.728-6.568,1.84-9.648,0.304l-87.216-43.608
			c-1.112-0.56-2.344-0.848-3.584-0.848h-24v-96h76.688l63.032,63.032c2.72,2.72,4.28,6.488,4.28,10.344
			c0,8.064-6.56,14.624-14.624,14.624c-3.848,0-7.624-1.56-10.344-4.28l-41.376-41.376l-11.312,11.312l41.376,41.376
			c5.784,5.784,13.472,8.968,21.656,8.968c16.88,0,30.624-13.744,30.624-30.624c0-8.176-3.184-15.872-8.968-21.656l-6.48-6.48
			l147.552-25.664c2.984-0.52,5.976,0.296,8.272,2.232c2.304,1.936,3.624,4.768,3.624,7.768
			C466.772,361.168,464.844,364.528,461.74,366.336z"/>
	</g>
</g>
<g>
</g>
<g>
</g>
<g>
</g>
<g>
</g>
<g>
</g>
<g>
</g>
<g>
</g>
<g>
</g>
<g>
</g>
<g>
</g>
<g>
</g>
<g>
</g>
<g>
</g>
<g>
</g>
<g>
</g>
</svg>
