<?xml version="1.0" encoding="UTF-8" standalone="no"?>
<!DOCTYPE svg PUBLIC "-//W3C//DTD SVG 1.1//EN" "http://www.w3.org/Graphics/SVG/1.1/DTD/svg11.dtd">
<svg width="100%" height="100%" viewBox="0 0 512 512" version="1.1" xmlns="http://www.w3.org/2000/svg" xmlns:xlink="http://www.w3.org/1999/xlink" xml:space="preserve" xmlns:serif="http://www.serif.com/" style="fill-rule:evenodd;clip-rule:evenodd;stroke-linejoin:round;stroke-miterlimit:1.41421;">
    <g transform="matrix(0.991385,0,0,0.991385,1.56536,4.10887)">
        <path d="M503.876,153.488L51.096,153.488C46.609,153.488 42.972,157.125 42.972,161.612C42.972,166.1 46.61,169.736 51.096,169.736L495.751,169.736L495.751,432.787C495.751,448.189 483.222,460.718 467.82,460.718L44.18,460.718C28.779,460.718 16.249,448.189 16.249,432.787L16.249,161.613L16.249,75.918C16.249,62.333 27.301,51.28 40.886,51.28L165.444,51.28C179.029,51.28 190.081,62.333 190.081,75.918L190.081,83.134C190.081,99.194 203.146,112.258 219.205,112.258L467.893,112.258C480.267,112.258 491.282,120.555 494.679,132.435C495.913,136.749 500.412,139.248 504.725,138.012C509.039,136.779 511.536,132.28 510.302,127.966C504.921,109.15 487.481,96.009 467.893,96.009L219.206,96.009C212.107,96.009 206.331,90.233 206.331,83.134L206.331,75.918C206.331,53.373 187.99,35.031 165.445,35.031L40.886,35.031C18.341,35.033 0,53.374 0,75.918L0,432.788C0,457.149 19.819,476.968 44.18,476.968L467.82,476.968C492.181,476.968 512,457.149 512,432.788L512,161.613C512,157.126 508.362,153.488 503.876,153.488Z" style="fill-rule:nonzero;"/>
    </g>
</svg>
