<?xml version="1.0" encoding="UTF-8" standalone="no"?>
<!DOCTYPE svg PUBLIC "-//W3C//DTD SVG 1.1//EN" "http://www.w3.org/Graphics/SVG/1.1/DTD/svg11.dtd">
<svg width="100%" height="100%" viewBox="0 0 512 512" version="1.1" xmlns="http://www.w3.org/2000/svg" xmlns:xlink="http://www.w3.org/1999/xlink" xml:space="preserve" xmlns:serif="http://www.serif.com/" style="fill-rule:evenodd;clip-rule:evenodd;stroke-linejoin:round;stroke-miterlimit:1.41421;">
    <g transform="matrix(0.990182,0,0,0.990182,2.42057,2.42057)">
        <path d="M331.753,11.396C307.311,3.834 281.824,0 256,0C187.62,0 123.333,26.629 74.981,74.98C26.629,123.333 0,187.62 0,256C0,365.987 69.975,463.491 174.122,498.624C174.919,498.893 175.728,499.02 176.525,499.02C179.661,499.02 182.587,497.042 183.644,493.906C184.972,489.973 182.859,485.71 178.927,484.383C80.894,451.313 15.029,359.533 15.029,256C15.029,191.635 40.095,131.121 85.608,85.608C131.121,40.095 191.635,15.03 256,15.03C280.317,15.03 304.309,18.638 327.311,25.754C331.28,26.983 335.485,24.761 336.711,20.796C337.938,16.831 335.718,12.622 331.753,11.396Z" style="fill-rule:nonzero;"/>
    </g>
    <g transform="matrix(0.990182,0,0,0.990182,2.42057,2.42057)">
        <path d="M470.473,116.171C444.005,75.653 406.838,43.561 362.99,23.363C359.22,21.625 354.757,23.275 353.021,27.045C351.285,30.815 352.933,35.278 356.703,37.014C397.98,56.028 432.971,86.242 457.891,124.391C483.458,163.528 496.971,209.038 496.971,256.001C496.971,320.366 471.906,380.879 426.392,426.393C380.879,471.905 320.365,496.97 256,496.97C240.729,496.97 225.45,495.533 210.588,492.699C206.513,491.916 202.576,494.595 201.799,498.673C201.022,502.75 203.696,506.686 207.773,507.463C223.561,510.473 239.787,512 256,512C324.38,512 388.667,485.372 437.02,437.02C485.371,388.667 512,324.38 512,256C512,206.111 497.64,157.759 470.473,116.171Z" style="fill-rule:nonzero;"/>
    </g>
    <g transform="matrix(0.990182,0,0,0.990182,2.42057,2.42057)">
        <path d="M352.391,248.485L263.515,248.485L263.515,159.609C263.515,155.459 260.151,152.094 256,152.094C251.85,152.094 248.485,155.458 248.485,159.609L248.485,248.485L159.61,248.485C155.46,248.485 152.095,251.849 152.095,256C152.095,260.15 155.459,263.515 159.61,263.515L248.486,263.515L248.486,352.39C248.485,356.541 251.85,359.905 256,359.905C260.15,359.905 263.515,356.541 263.515,352.39L263.515,263.515L352.391,263.515C356.541,263.515 359.906,260.15 359.906,256C359.906,251.85 356.542,248.485 352.391,248.485Z" style="fill-rule:nonzero;"/>
    </g>
</svg>
