<?xml version="1.0" encoding="UTF-8" standalone="no"?>
<!DOCTYPE svg PUBLIC "-//W3C//DTD SVG 1.1//EN" "http://www.w3.org/Graphics/SVG/1.1/DTD/svg11.dtd">
<svg width="100%" height="100%" viewBox="0 0 512 512" version="1.1" xmlns="http://www.w3.org/2000/svg" xmlns:xlink="http://www.w3.org/1999/xlink" xml:space="preserve" xmlns:serif="http://www.serif.com/" style="fill-rule:evenodd;clip-rule:evenodd;stroke-linejoin:round;stroke-miterlimit:1.41421;">
    <g transform="matrix(3.66067,0,0,3.66067,-680.711,-680.71)">
        <g>
            <g>
                <path d="M191.687,187.4C192.528,187.749 192.533,187.752 193.256,188.306L323.694,318.744C324.183,319.381 324.386,319.517 324.6,320.313C325.142,322.338 323.475,324.719 321.219,324.719C320.605,324.719 320.001,324.557 319.469,324.25C319.205,324.098 318.986,323.879 318.744,323.694L188.306,193.256C187.817,192.619 187.614,192.483 187.4,191.687C187.009,190.227 187.692,188.523 189.031,187.75C189.745,187.338 189.985,187.386 190.781,187.281C191.083,187.321 191.385,187.361 191.687,187.4Z" style="fill-rule:nonzero;"/>
                <path d="M208.637,300.888C209.379,301.195 209.623,301.211 210.206,301.794C211.058,302.646 211.43,303.988 211.112,305.175C210.899,305.971 210.695,306.107 210.206,306.744L193.943,323.007C193.701,323.193 193.481,323.411 193.218,323.563C190.892,324.906 187.266,322.691 188.087,319.626C188.3,318.831 188.504,318.694 188.993,318.057L205.256,301.794C205.893,301.305 206.029,301.101 206.825,300.888C207.411,300.731 208.031,300.808 208.637,300.888ZM234.66,274.865C235.402,275.172 235.647,275.188 236.229,275.771C237.323,276.864 237.547,278.677 236.785,279.996C236.469,280.544 235.944,281.006 235.506,281.443C235.506,281.443 234.061,282.889 233.338,283.612C232.701,284.101 232.565,284.305 231.769,284.518C229.76,285.056 227.363,283.41 227.363,281.137C227.363,280.523 227.525,279.919 227.832,279.387C227.984,279.123 228.203,278.904 228.388,278.662L230.557,276.494C230.557,276.494 231.039,276.012 231.279,275.771C231.521,275.585 231.741,275.367 232.004,275.215C232.718,274.803 232.958,274.85 233.754,274.746C234.056,274.785 234.358,274.825 234.66,274.865ZM265.381,244.144C266.123,244.451 266.367,244.467 266.95,245.05C267.808,245.908 268.175,247.239 267.856,248.431C267.643,249.227 267.439,249.363 266.95,250L250.687,266.263C250.05,266.752 249.913,266.956 249.118,267.169C247.109,267.707 244.712,266.061 244.712,263.788C244.712,263.174 244.873,262.57 245.181,262.038C245.333,261.775 245.551,261.555 245.737,261.313L262,245.05C262.637,244.561 262.773,244.357 263.569,244.144C264.155,243.987 264.775,244.064 265.381,244.144ZM289.357,227.424C288.615,227.732 288.431,227.893 287.607,227.893C285.757,227.893 284.107,226.25 284.107,224.393C284.107,223.779 284.268,223.175 284.576,222.643C284.728,222.379 284.946,222.16 285.132,221.918L287.3,219.75C287.3,219.75 287.782,219.268 288.023,219.027C288.66,218.538 288.797,218.334 289.592,218.121C291.601,217.583 293.998,219.229 293.998,221.502C293.998,222.116 293.837,222.72 293.529,223.252C293.377,223.516 293.159,223.735 292.973,223.977L290.082,226.868C289.84,227.054 289.598,227.239 289.357,227.424ZM322.125,187.4C322.866,187.707 323.111,187.724 323.694,188.306C324.546,189.158 324.918,190.501 324.6,191.687C324.386,192.483 324.183,192.619 323.694,193.256L307.43,209.519C307.189,209.705 306.969,209.923 306.706,210.076C305.104,211 302.853,210.403 301.924,208.794C301.462,207.993 301.34,207.014 301.575,206.139C301.788,205.343 301.992,205.206 302.481,204.57L318.744,188.306C318.986,188.121 319.205,187.902 319.469,187.75C320.183,187.338 320.423,187.386 321.219,187.281C321.521,187.321 321.823,187.361 322.125,187.4Z" style="fill-rule:nonzero;"/>
            </g>
        </g>
    </g>
</svg>
