<?xml version="1.0" encoding="iso-8859-1"?>
<!-- Generator: Adobe Illustrator 19.0.0, SVG Export Plug-In . SVG Version: 6.00 Build 0)  -->
<svg version="1.1" id="Capa_1" xmlns="http://www.w3.org/2000/svg" xmlns:xlink="http://www.w3.org/1999/xlink" x="0px" y="0px"
	 viewBox="0 0 480 480" style="enable-background:new 0 0 480 480;" xml:space="preserve">
<g>
	<g>
		<path d="M240,0C107.452,0,0,107.452,0,240s107.452,240,240,240s240-107.452,240-240C479.85,107.514,372.486,0.15,240,0z M240,464
			C116.288,464,16,363.712,16,240S116.288,16,240,16s224,100.288,224,224C463.861,363.654,363.654,463.861,240,464z"/>
	</g>
</g>
<g>
	<g>
		<path d="M279.192,336c-3.206-15.709-15.483-27.985-31.192-31.192V48h-16v256.809c-21.645,4.418-35.61,25.546-31.192,47.191
			c3.206,15.709,15.483,27.985,31.192,31.192V448h16v-64.809C269.645,378.773,283.61,357.645,279.192,336z M240,368
			c-13.255,0-24-10.745-24-24s10.745-24,24-24s24,10.745,24,24C263.986,357.249,253.249,367.986,240,368z"/>
	</g>
</g>
<g>
	<g>
		<path d="M151.192,232c-3.206-15.709-15.483-27.985-31.192-31.192V128h-16v72.809C82.355,205.227,68.39,226.355,72.808,248
			c3.206,15.709,15.483,27.985,31.192,31.192V392h16V279.191C141.645,274.773,155.61,253.645,151.192,232z M112,264
			c-13.255,0-24-10.745-24-24s10.745-24,24-24s24,10.745,24,24C135.986,253.249,125.249,263.986,112,264z"/>
	</g>
</g>
<g>
	<g>
		<path d="M407.192,160c-3.206-15.709-15.483-27.985-31.192-31.192V80h-16v48.809c-21.645,4.418-35.61,25.546-31.192,47.191
			c3.206,15.709,15.483,27.985,31.192,31.192V336h16V207.191C397.645,202.773,411.61,181.645,407.192,160z M368,192
			c-13.255,0-24-10.745-24-24s10.745-24,24-24s24,10.745,24,24C391.986,181.249,381.249,191.986,368,192z"/>
	</g>
</g>
<g>
	<g>
		<rect x="360" y="352" width="16" height="40"/>
	</g>
</g>
<g>
	<g>
		<rect x="104" y="80" width="16" height="32"/>
	</g>
</g>
<g>
</g>
<g>
</g>
<g>
</g>
<g>
</g>
<g>
</g>
<g>
</g>
<g>
</g>
<g>
</g>
<g>
</g>
<g>
</g>
<g>
</g>
<g>
</g>
<g>
</g>
<g>
</g>
<g>
</g>
</svg>
