<svg viewBox="0 -72 512 512" xmlns="http://www.w3.org/2000/svg"><path d="m392.265625 128.25c-5.667969 0-11.332031.398438-16.925781 1.191406.261718-3.234375.394531-6.476562.394531-9.707031 0-66.023437-53.710937-119.734375-119.734375-119.734375-29.054688 0-57.070312 10.535156-78.890625 29.667969-19.882813 17.429687-33.394531 40.859375-38.523437 66.550781-.945313-.023438-1.886719-.03125-2.820313-.03125-74.863281 0-135.765625 60.90625-135.765625 135.765625s60.902344 135.765625 135.765625 135.765625h25.046875c4.152344 0 7.515625-3.363281 7.515625-7.515625s-3.363281-7.515625-7.515625-7.515625h-25.046875c-66.574219 0-120.734375-54.160156-120.734375-120.734375s54.160156-120.734375 120.734375-120.734375c2.796875 0 5.6875.101562 8.585937.308594 3.933594.28125 7.425782-2.542969 7.972657-6.457032 7.1875-51.332031 51.761719-90.039062 103.675781-90.039062 57.734375 0 104.703125 46.96875 104.703125 104.703125 0 5.917969-.503906 11.878906-1.5 17.71875-.882813 5.199219 3.976563 9.789063 9.121094 8.578125 7.808593-1.824219 15.863281-2.75 23.941406-2.75 57.734375 0 104.703125 46.96875 104.703125 104.703125s-46.96875 104.703125-104.703125 104.703125h-196.050781c-4.148438 0-7.511719 3.363281-7.511719 7.515625s3.363281 7.515625 7.511719 7.515625h196.050781c66.023437 0 119.734375-53.710938 119.734375-119.734375s-53.710938-119.734375-119.734375-119.734375zm0 0"/><path d="m305.855469 187.707031c-2.300781 3.453125-1.367188 8.117188 2.085937 10.421875l24 16c3.367188 2.308594 8.222656 1.367188 10.46875-2.054687l16.03125-24.046875c2.300782-3.453125 1.367188-8.117188-2.085937-10.421875-3.453125-2.300781-8.117188-1.367188-10.417969 2.085937l-4.8125 7.21875c-9.433594-38.234375-44.019531-66.675781-85.125-66.675781-34.863281 0-66.414062 20.648437-80.371094 52.601563-1.664062 3.800781.070313 8.230468 3.875 9.894531 3.804688 1.660156 8.234375-.074219 9.894532-3.878907 11.570312-26.476562 37.710937-43.585937 66.601562-43.585937 34.878906 0 64.082031 24.707031 71.054688 57.539063l-10.777344-7.183594c-3.453125-2.300782-8.117188-1.367188-10.421875 2.085937zm0 0"/><path d="m174.363281 200.539062c-1.929687.386719-3.679687 1.5625-4.773437 3.199219l-16.03125 24.046875c-2.09375 3.140625-1.480469 7.488282 1.414062 9.917969 3.386719 2.84375 8.640625 2.09375 11.089844-1.582031l4.8125-7.21875c9.433594 38.234375 44.019531 66.675781 85.125 66.675781 35.3125 0 67.019531-21.019531 80.777344-53.542969 1.617187-3.824218-.167969-8.234375-3.992188-9.847656-3.824218-1.617188-8.230468.171875-9.847656 3.992188-11.402344 26.953124-37.675781 44.367187-66.9375 44.367187-34.878906 0-64.082031-24.710937-71.054688-57.539063l10.777344 7.183594c3.453125 2.300782 8.121094 1.367188 10.421875-2.085937s1.367188-8.117188-2.085937-10.421875l-24-16c-1.640625-1.125-3.75-1.535156-5.695313-1.144532zm0 0"/></svg>