<?xml version="1.0"?>
<svg xmlns="http://www.w3.org/2000/svg" id="Layer_3" data-name="Layer 3" viewBox="0 0 64 64" width="100%" height="100%"><path d="M44,24a3,3,0,0,0-6,0v1H26V24a3,3,0,0,0-6,0v4a3,3,0,0,0,6,0V27H38v1a3,3,0,0,0,6,0ZM24,28a1,1,0,0,1-2,0V24a1,1,0,0,1,2,0Zm18,0a1,1,0,0,1-2,0V24a1,1,0,0,1,2,0Z"/><path d="M32,30a4,4,0,1,0,4,4A4,4,0,0,0,32,30Zm0,6a2,2,0,1,1,2-2A2,2,0,0,1,32,36Z"/><path d="M44.707,47.293,43.414,46l1.293-1.293-1.414-1.414-2,2a1,1,0,0,0,0,1.414L42.586,48l-1.293,1.293,1.414,1.414,2-2A1,1,0,0,0,44.707,47.293Z"/><path d="M20.586,46l-1.293,1.293a1,1,0,0,0,0,1.414l2,2,1.414-1.414L21.414,48l1.293-1.293a1,1,0,0,0,0-1.414l-2-2-1.414,1.414Z"/><path d="M62.707,31.293l-30-30a1,1,0,0,0-1.414,0l-30,30A1,1,0,0,0,2,33H7V57H6a1,1,0,0,0-1,1v4a1,1,0,0,0,1,1H58a1,1,0,0,0,1-1V58a1,1,0,0,0-1-1H57V33h5a1,1,0,0,0,.707-1.707ZM57,61H7V59H57ZM29,49h6v8H33V51H31v6H29Zm8,8V45.414l6.707-6.707a1,1,0,0,0,0-1.414l-3-3a1,1,0,0,0-1.414,0l-5,5,1.414,1.414L40,36.414,41.586,38l-6.293,6.293A1,1,0,0,0,35,45v2H29V45a1,1,0,0,0-.293-.707L22.414,38,24,36.414l4.293,4.293,1.414-1.414-5-5a1,1,0,0,0-1.414,0l-3,3a1,1,0,0,0,0,1.414L27,45.414V57H9V32.414l23-23,23,23V57ZM56.414,31,32.707,7.293a1,1,0,0,0-1.414,0L7.586,31H4.414L32,3.414,59.586,31Z"/></svg>
