<?xml version="1.0" encoding="UTF-8" standalone="no"?>
<!DOCTYPE svg PUBLIC "-//W3C//DTD SVG 1.1//EN" "http://www.w3.org/Graphics/SVG/1.1/DTD/svg11.dtd">
<svg width="100%" height="100%" viewBox="0 0 34 49" version="1.1" xmlns="http://www.w3.org/2000/svg" xmlns:xlink="http://www.w3.org/1999/xlink" xml:space="preserve" xmlns:serif="http://www.serif.com/" style="fill-rule:evenodd;clip-rule:evenodd;stroke-linejoin:round;stroke-miterlimit:2;">
    <g>
        <path d="M11.7,11.7L22.2,11.7L22.2,22.1L11.7,22.1L11.7,11.7ZM11.7,23.4L22.2,23.4L22.2,33.9L11.7,33.9L11.7,23.4ZM23.5,0L34,0L34,10.5L23.5,10.5L23.5,0ZM11.7,0L22.2,0L22.2,10.5L11.7,10.5L11.7,0ZM0,0L10.5,0L10.5,10.5L0,10.5L0,0ZM0,40.1L0,41.7L2.4,41.7L2.4,48.6L4.4,48.6L4.4,41.7L6.7,41.7L6.7,40.1M11.1,41.8C11,42.2 11,42.8 10.9,43.3C10.8,43.8 10.8,44.4 10.7,45C10.7,45.6 10.6,46.2 10.6,46.8C10.6,47.4 10.5,48 10.5,48.5L12,48.5C12,47.8 12,47.1 12.1,46.3C12.1,45.5 12.2,44.8 12.2,44L12.5,44.9C12.6,45.2 12.7,45.6 12.8,45.9L13.1,46.8C13.2,47.1 13.3,47.3 13.4,47.6L14.4,47.6L14.7,46.8L15,45.9C15.1,45.6 15.2,45.2 15.4,44.9L15.7,44C15.8,44.8 15.8,45.6 15.8,46.4C15.8,47.2 15.9,47.9 15.9,48.6L17.4,48.6C17.4,48.1 17.3,47.5 17.3,46.9C17.3,46.3 17.2,45.7 17.2,45.1C17.2,44.5 17.1,43.9 17,43.4C16.9,42.8 16.9,42.3 16.8,41.9L15.5,41.9C15.4,42.1 15.3,42.4 15.2,42.7C15.1,43 14.9,43.3 14.8,43.7C14.7,44.1 14.5,44.4 14.4,44.8C14.3,45.2 14.1,45.5 14,45.8C13.9,45.5 13.8,45.1 13.6,44.8C13.5,44.4 13.3,44.1 13.2,43.7C13.1,43.4 12.9,43 12.8,42.7C12.7,42.4 12.6,42.1 12.5,41.9L11.1,41.9L11.1,41.8ZM19.1,41.8L20.6,41.8L20.6,48.6L19.1,48.6L19.1,41.8ZM7.4,41.8L8.9,41.8L8.9,48.6L7.4,48.6L7.4,41.8ZM26.7,43.1L26.7,41.8L22.1,41.8L22.1,48.6L23.7,48.6L23.7,45.6L26.1,45.6L26.1,44.3L23.7,44.3L23.7,43.1" style="fill:rgb(116,116,116);"/>
        <path d="M29.9,48.6L29.9,45.8L28.5,43.7L27.3,41.8L29,41.8C29,41.8 29.2,41.9 29.9,43.1C30.5,44.1 30.7,44.5 30.7,44.5C30.7,44.5 30.8,44.1 31.5,43.1C32.1,42.1 32.4,41.8 32.4,41.8L34,41.8L31.4,45.8L31.4,48.6L29.9,48.6Z" style="fill:rgb(116,116,116);fill-rule:nonzero;"/>
    </g>
</svg>
